# xmcd
#
# Track frame offsets: 
#        150
#        29506
#        65580
#        100620
#        123297
#        166008
#        193991
#        210122
#        234893
#        265335
#        294787
#
# Disc length: 4399 seconds
#
# Revision: 0
# Processed by: cddbd v1.5.2PL0 Copyright (c) Steve Scherf et al.
# Submitted via: ExactAudioCopy v0.99pb4
#
DISCID=8c112d0b
DTITLE=The Delta Five Blues Band - Live at Robusto's
DYEAR=2008
DGENRE=Blues
TTITLE0=Rock me Baby
TTITLE1=Scratch My Back
TTITLE2=Mannish Boy
TTITLE3=Shake Rattle and Roll
TTITLE4=Merry Go Round
TTITLE5=Dressed Up and Ready To Go
TTITLE6=Snatch It Back and Hold It
TTITLE7=Who's Been Talkin
TTITLE8=I'm In The Mood
TTITLE9=Buzz Me Baby
TTITLE10=Wang Dang Doodle
EXTD=
EXTT0=
EXTT1=
EXTT2=
EXTT3=
EXTT4=
EXTT5=
EXTT6=
EXTT7=
EXTT8=
EXTT9=
EXTT10=
PLAYORDER=
